<svg width="16" height="16" viewBox="0 0 16 16" fill="none" xmlns="http://www.w3.org/2000/svg">
<path d="M7.99992 15.1667C4.04659 15.1667 0.833252 11.9533 0.833252 8.00001C0.833252 4.04668 4.04659 0.833344 7.99992 0.833344C11.9533 0.833344 15.1666 4.04668 15.1666 8.00001C15.1666 11.9533 11.9533 15.1667 7.99992 15.1667ZM7.99992 1.83334C4.59992 1.83334 1.83325 4.60001 1.83325 8.00001C1.83325 11.4 4.59992 14.1667 7.99992 14.1667C11.3999 14.1667 14.1666 11.4 14.1666 8.00001C14.1666 4.60001 11.3999 1.83334 7.99992 1.83334Z" fill="black"/>
<path d="M10.6666 8.50001H5.33325C5.05992 8.50001 4.83325 8.27334 4.83325 8.00001C4.83325 7.72668 5.05992 7.50001 5.33325 7.50001H10.6666C10.9399 7.50001 11.1666 7.72668 11.1666 8.00001C11.1666 8.27334 10.9399 8.50001 10.6666 8.50001Z" fill="black"/>
<path d="M7.99992 11.1667C7.72659 11.1667 7.49992 10.94 7.49992 10.6667V5.33334C7.49992 5.06001 7.72659 4.83334 7.99992 4.83334C8.27325 4.83334 8.49992 5.06001 8.49992 5.33334V10.6667C8.49992 10.94 8.27325 11.1667 7.99992 11.1667Z" fill="black"/>
</svg>
