<svg width="16" height="16" viewBox="0 0 16 16" fill="none" xmlns="http://www.w3.org/2000/svg">
<path fill-rule="evenodd" clip-rule="evenodd" d="M7.46664 0.683329C5.65331 0.845996 4.09131 1.56533 2.83864 2.81333C2.01131 3.63733 1.48864 4.45933 1.10331 5.54266C0.64722 6.82444 0.556688 8.20782 0.841841 9.5381C1.12699 10.8684 1.77659 12.0931 2.71798 13.0753C2.89464 13.26 3.36064 13.6727 3.58864 13.846C4.34464 14.4213 5.35198 14.8927 6.30664 15.1187C7.47836 15.401 8.70203 15.3863 9.86664 15.076C11.1125 14.7494 12.2492 14.0974 13.16 13.1867C14.3293 12.0193 15.0466 10.5667 15.266 8.91933C15.3233 8.48533 15.3513 7.394 15.3093 7.2C15.2513 6.93133 15.106 6.792 14.83 6.74133C14.4953 6.67866 14.1913 6.79733 14.0746 7.036C14.018 7.152 14.0133 7.206 13.996 7.89333C13.9766 8.66533 13.9446 8.952 13.824 9.44C13.1426 12.192 10.5913 14.11 7.77331 13.99C5.71598 13.9027 3.91731 12.8373 2.85064 11.0753C2.01464 9.694 1.78064 7.94533 2.22198 6.37333C2.50379 5.38 3.03597 4.47569 3.76754 3.74705C4.4991 3.0184 5.40553 2.48984 6.39998 2.212C6.85735 2.08424 7.32917 2.01546 7.80398 2.00733C8.71798 1.97933 9.41598 2.10666 10.378 2.47733C10.7 2.60066 10.8533 2.61533 11.008 2.536C11.1433 2.466 11.2093 2.38933 11.3046 2.18666C11.368 2.05333 11.3866 1.97666 11.3866 1.85266C11.3866 1.54733 11.256 1.41466 10.7566 1.21466C9.92017 0.869119 9.02499 0.687821 8.11998 0.680663C7.82664 0.675996 7.53264 0.677329 7.46664 0.683329ZM14.4266 2.02933C14.3353 2.07266 13.5586 2.83666 11.1546 5.24933L8.00331 8.41333L7.16798 7.58133C6.30064 6.716 6.20798 6.64133 5.99998 6.64066C5.85931 6.64066 5.65464 6.74933 5.51464 6.9C5.30264 7.128 5.25531 7.33666 5.36198 7.57333C5.43464 7.73533 7.58131 9.88533 7.75798 9.974C7.83305 10.0118 7.91593 10.0315 7.99998 10.0315C8.08403 10.0315 8.16691 10.0118 8.24198 9.974C8.41931 9.886 15.224 3.07333 15.3026 2.90466C15.416 2.664 15.3586 2.43533 15.1286 2.20466C14.8986 1.97533 14.6666 1.91733 14.4266 2.02933Z" fill="#FF0000"/>
</svg>
