<svg width="18" height="19" viewBox="0 0 18 19" fill="none" xmlns="http://www.w3.org/2000/svg">
<path fill-rule="evenodd" clip-rule="evenodd" d="M9.0143 17.75C7.91315 17.75 6.83964 17.7376 5.77749 17.7153C4.41873 17.6881 3.47849 16.7938 3.3249 15.3814C3.06891 13.0384 2.63089 7.51572 2.62683 7.46045C2.5992 7.11972 2.8495 6.82106 3.18512 6.79384C3.51587 6.78476 3.81493 7.02071 3.84175 7.36062C3.84581 7.41672 4.28302 12.9204 4.53657 15.2453C4.62352 16.048 5.05017 16.4622 5.80269 16.4778C7.83433 16.5216 9.90741 16.524 12.1422 16.4828C12.9419 16.4671 13.3742 16.0612 13.4636 15.2395C13.7155 12.9344 14.1544 7.41672 14.1592 7.36062C14.186 7.02071 14.4827 6.78311 14.815 6.79384C15.1507 6.82189 15.401 7.11972 15.3741 7.46045C15.3693 7.51655 14.9288 13.0532 14.6753 15.3756C14.5176 16.8169 13.5798 17.6939 12.1642 17.7203C11.0809 17.7393 10.0358 17.75 9.0143 17.75Z" fill="#F93E3E"/>
<path fill-rule="evenodd" clip-rule="evenodd" d="M15.8905 5.36599H2.10949C1.77305 5.36599 1.5 5.08878 1.5 4.74723C1.5 4.40567 1.77305 4.12847 2.10949 4.12847H15.8905C16.2269 4.12847 16.5 4.40567 16.5 4.74723C16.5 5.08878 16.2269 5.36599 15.8905 5.36599Z" fill="#F93E3E"/>
<path fill-rule="evenodd" clip-rule="evenodd" d="M13.2351 5.36599C12.3103 5.36599 11.5074 4.6969 11.3253 3.77619L11.1279 2.77297C11.0864 2.62035 10.9149 2.48752 10.7199 2.48752H7.27993C7.0849 2.48752 6.91342 2.62035 6.86385 2.81092L6.6745 3.77619C6.49328 4.6969 5.68957 5.36599 4.76476 5.36599C4.42832 5.36599 4.15527 5.08878 4.15527 4.74723C4.15527 4.40567 4.42832 4.12847 4.76476 4.12847C5.11095 4.12847 5.41164 3.87766 5.4799 3.53281L5.67738 2.52959C5.8781 1.76068 6.53392 1.25 7.27993 1.25H10.7199C11.4659 1.25 12.1217 1.76068 12.3143 2.49247L12.5207 3.53281C12.5882 3.87766 12.8889 4.12847 13.2351 4.12847C13.5715 4.12847 13.8446 4.40567 13.8446 4.74723C13.8446 5.08878 13.5715 5.36599 13.2351 5.36599Z" fill="#F93E3E"/>
</svg>
