<svg width="18" height="19" viewBox="0 0 18 19" fill="none" xmlns="http://www.w3.org/2000/svg">
<path d="M4.155 15.14C3.6975 15.14 3.27 14.9825 2.9625 14.69C2.5725 14.3225 2.385 13.7675 2.4525 13.1675L2.73 10.7375C2.7825 10.28 3.06 9.67248 3.3825 9.34248L9.54 2.82498C11.0775 1.19748 12.6825 1.15248 14.31 2.68998C15.9375 4.22748 15.9825 5.83248 14.445 7.45998L8.2875 13.9775C7.9725 14.315 7.3875 14.63 6.93 14.705L4.515 15.1175C4.3875 15.125 4.275 15.14 4.155 15.14ZM11.9475 2.68248C11.37 2.68248 10.8675 3.04248 10.3575 3.58248L4.2 10.1075C4.05 10.265 3.8775 10.64 3.8475 10.8575L3.57 13.2875C3.54 13.535 3.6 13.7375 3.735 13.865C3.87 13.9925 4.0725 14.0375 4.32 14L6.735 13.5875C6.9525 13.55 7.3125 13.355 7.4625 13.1975L13.62 6.67998C14.55 5.68998 14.8875 4.77498 13.53 3.49998C12.93 2.92248 12.4125 2.68248 11.9475 2.68248Z" fill="#9F8157"/>
<path d="M13.005 8.71248C12.99 8.71248 12.9675 8.71248 12.9525 8.71248C10.6125 8.47998 8.73 6.70248 8.37 4.37748C8.325 4.06998 8.535 3.78498 8.8425 3.73248C9.15 3.68748 9.435 3.89748 9.4875 4.20498C9.7725 6.01998 11.2425 7.41498 13.0725 7.59498C13.38 7.62498 13.605 7.90248 13.575 8.20998C13.5375 8.49498 13.29 8.71248 13.005 8.71248Z" fill="#9F8157"/>
<path d="M15.75 17.5625H2.25C1.9425 17.5625 1.6875 17.3075 1.6875 17C1.6875 16.6925 1.9425 16.4375 2.25 16.4375H15.75C16.0575 16.4375 16.3125 16.6925 16.3125 17C16.3125 17.3075 16.0575 17.5625 15.75 17.5625Z" fill="#9F8157"/>
</svg>
