<svg width="36" height="36" viewBox="0 0 36 36" fill="none" xmlns="http://www.w3.org/2000/svg">
<rect width="36" height="36" rx="8" fill="#FF0000"/>
<rect width="36" height="36" rx="18" fill="white"/>
<path d="M30.726 5.27016C23.6955 -1.75821 12.2985 -1.75652 5.27016 5.27403C-1.75821 12.3046 -1.75652 23.7015 5.27403 30.7299C12.3046 37.7583 23.7015 37.7566 30.7299 30.726C34.1053 27.3496 36.0011 22.7704 36 17.9962C35.999 13.2226 34.1019 8.64502 30.726 5.27016ZM27.2604 25.0738C27.2596 25.0746 27.2588 25.0754 27.258 25.0762V25.0702L26.346 25.9762C25.1665 27.1706 23.4487 27.662 21.816 27.2722C20.171 26.8319 18.6072 26.131 17.184 25.1962C15.8617 24.3511 14.6363 23.3633 13.53 22.2502C12.5121 21.2397 11.5976 20.1302 10.8 18.9382C9.92752 17.6556 9.23698 16.2583 8.74796 14.7862C8.18735 13.0568 8.65191 11.1591 9.94798 9.88421L11.016 8.81623C11.3129 8.51796 11.7954 8.51691 12.0936 8.81384C12.0943 8.81461 12.0952 8.81539 12.096 8.81623L15.4679 12.1882C15.7662 12.4851 15.7673 12.9676 15.4703 13.2658C15.4696 13.2666 15.4688 13.2674 15.4679 13.2682L13.4879 15.2482C12.9198 15.8101 12.8484 16.7031 13.32 17.3482C14.0361 18.3311 14.8286 19.2559 15.69 20.1143C16.6504 21.0788 17.6944 21.9562 18.81 22.7363C19.4545 23.1859 20.3284 23.1101 20.8859 22.5563L22.7999 20.6123C23.0968 20.314 23.5793 20.313 23.8775 20.6099C23.8783 20.6107 23.8791 20.6114 23.8799 20.6123L27.2579 23.9963C27.5563 24.2931 27.5573 24.7756 27.2604 25.0738Z" fill="#FF0000"/>
</svg>
