<svg width="36" height="36" viewBox="0 0 36 36" fill="none" xmlns="http://www.w3.org/2000/svg">
<rect width="36" height="36" rx="8" fill="#0C0C0C"/>
<path d="M36.0009 18C36.0009 27.9408 27.9416 36 18 36H17.9663C8.04061 35.9814 0 27.9275 0 18C0 8.07254 8.04061 0.0177419 17.9663 0H18C27.9416 0 36.0009 8.05658 36.0009 18Z" fill="black"/>
<path d="M17.9663 0V36C8.04061 35.9814 0 27.9275 0 18C0 8.07254 8.04061 0.0177419 17.9663 0Z" fill="#0C0C0C"/>
<path d="M27.7949 13.0171L27.7727 16.7048C27.0541 16.696 26.3392 16.6001 25.6437 16.4191C24.5707 16.1388 23.5587 15.6627 22.6586 15.0149C22.6586 15.3919 22.6639 15.9543 22.6639 16.6382C22.6639 17.5484 22.6639 18.0656 22.6586 18.6147C22.6426 22.0069 22.7269 22.6634 22.4288 24.0047C22.3668 24.3281 22.282 24.6468 22.1751 24.9583C21.6021 26.555 20.353 27.8342 19.0801 28.5146C18.7248 28.7035 18.3519 28.8571 17.9668 28.9733C15.561 29.7024 12.6699 29.062 11.1778 27.2878L11.1681 27.2771L11.1565 27.2621C9.88889 25.7327 9.61211 23.3482 9.5855 22.7379C9.5855 22.6598 9.58018 22.5835 9.58018 22.5835C9.56065 21.7498 9.68058 20.9187 9.93501 20.1245C10.1923 19.3031 11.0394 17.5883 12.9423 16.5469C14.129 15.9076 15.4835 15.6484 16.8224 15.8044L16.7789 19.5364C16.7035 19.5168 14.8806 19.0848 13.6839 20.3268C12.5998 21.4516 12.6699 23.2639 13.439 24.2903C13.4798 24.3453 13.5233 24.3985 13.5685 24.4482C13.9988 24.9281 14.5443 25.1082 14.9125 25.2342C15.4006 25.395 15.913 25.47 16.4268 25.4559C16.9771 25.4473 17.5126 25.2754 17.965 24.9618C19.2158 24.112 19.3843 22.5986 19.3905 22.5126C19.3752 17.6406 19.3607 12.7687 19.3471 7.89682V7.89239L21.6917 7.85069H21.7298L22.0696 7.84448C22.3201 8.74608 22.7447 9.5899 23.3195 10.3283C23.5006 10.5593 23.6961 10.7786 23.905 10.9848C24.694 11.7527 25.6418 12.3384 26.6816 12.7004H26.6886C27.0494 12.8322 27.419 12.9381 27.7949 13.0171Z" fill="#FD2854"/>
<path d="M26.7343 14.6858H26.7272C25.4645 14.8881 24.172 14.7899 22.9544 14.3993C22.1042 14.1228 21.306 13.7064 20.5929 13.1671C21.0205 15.7517 21.0205 18.3889 20.5929 20.9735C20.0864 24.0109 19.7688 25.9146 18.0736 27.1326C18.0381 27.1583 18.0017 27.184 17.9654 27.208C15.6243 28.7932 12.3536 28.0064 11.1552 27.2603L11.1374 27.2497L11.1037 27.2284C10.7087 26.9667 10.3381 26.6698 9.99662 26.3413C9.38442 25.7474 8.8959 25.0382 8.55926 24.2546C8.22262 23.4709 8.04453 22.6283 8.03526 21.7754C8.01248 20.892 8.15912 20.0125 8.46727 19.1842C8.66687 18.652 9.40848 16.7589 11.4745 15.6066C12.7975 14.8812 14.3262 14.6225 15.8142 14.8721C15.8083 15.1678 15.8026 15.4635 15.7973 15.7592V15.7654L15.7627 17.6372C15.1152 17.4846 14.4458 17.4473 13.7854 17.5272C13.2531 17.5928 12.7315 17.654 12.1771 18.0026C11.467 18.4597 10.9645 19.1769 10.7773 20.0004C10.6588 20.3992 10.6345 20.8201 10.7063 21.2299C10.7276 21.347 10.8837 22.1604 11.5402 22.7442C11.761 22.9402 11.8551 22.9482 12.1771 23.2489C12.461 23.515 12.5319 23.6428 12.7919 23.8637C12.7919 23.8637 12.8557 23.9178 12.9604 23.9941C12.9671 23.9999 12.9742 24.0052 12.9817 24.01C13.1248 24.1147 13.2751 24.2093 13.4314 24.293C14.0817 24.6337 15.2455 24.67 16.0989 24.2558C17.2797 23.6818 17.9237 22.3618 17.921 21.5776C17.9068 16.7039 17.8923 11.8305 17.8776 6.95745H17.9592L21.5803 6.93616C21.5777 7.21861 21.6168 7.4999 21.6965 7.77091C21.7054 7.80019 21.7142 7.82769 21.724 7.85962C21.7337 7.89156 21.74 7.90664 21.7479 7.92881C21.8041 8.07624 21.869 8.2202 21.9422 8.35994L21.9928 8.46196V8.46994C21.992 8.47224 21.992 8.47474 21.9928 8.47704L22.0008 8.49389L22.0087 8.50986C22.0136 8.52018 22.0189 8.53024 22.0247 8.54002C22.03 8.55155 22.0362 8.56308 22.0425 8.57462C22.0762 8.63937 22.1223 8.72454 22.1746 8.82034C22.2075 8.87978 22.242 8.93921 22.2775 8.99776L22.3157 9.06074C22.3343 9.09268 22.3538 9.12461 22.3733 9.15566L22.4443 9.26832C22.7202 9.70389 23.2045 10.4375 23.8912 10.9919C24.8563 11.7708 25.9652 11.9908 26.6607 12.0565C26.6651 12.2747 26.6704 12.4929 26.6749 12.7111C26.7009 13.3699 26.7207 14.0282 26.7343 14.6858Z" fill="#24F6FA"/>
<path d="M26.7458 15.7281C24.9179 15.7952 23.1232 15.2269 21.6672 14.1198V21.9263C21.6494 22.2252 21.3877 25.5225 18.4089 27.3375C18.2616 27.4262 18.1135 27.5087 17.9653 27.585C15.163 29.015 12.4245 27.8946 12.154 27.7784C11.8849 27.6905 11.6271 27.5714 11.3857 27.4236C11.3103 27.3766 11.2367 27.3278 11.1666 27.2772L11.1037 27.2302C9.27624 25.8428 9.20084 23.0165 9.18931 22.5996C9.16978 21.7658 9.28971 20.9347 9.54415 20.1405C9.84576 19.178 10.7462 17.5556 12.5514 16.5629C13.5475 16.0208 14.6669 15.7458 15.8008 15.7645V15.7707C15.786 16.7081 15.7712 17.6457 15.7565 18.5837C15.5657 18.5322 14.3965 18.2377 13.254 18.9572C12.5439 19.4142 12.0413 20.1314 11.8541 20.9549C11.7421 21.3545 11.7179 21.7736 11.7832 22.1835C11.8845 22.6896 12.1233 23.158 12.4733 23.5372C12.6205 23.7067 12.7849 23.8604 12.9639 23.9958C12.9706 24.0017 12.9777 24.007 12.9852 24.0118C13.1257 24.1203 13.2763 24.215 13.4349 24.2948L13.4403 24.2992C13.7573 24.7779 14.2145 25.1469 14.7494 25.3555C15.2843 25.5642 15.8706 25.6024 16.428 25.4649C16.6877 25.4107 16.94 25.3255 17.1794 25.2112C17.4693 25.0733 17.735 24.8893 17.9662 24.6665C18.8639 23.8033 18.9952 22.6093 19.0014 22.5375L18.9624 7.91019L19.3527 7.90221L21.6973 7.85608H21.731C21.7399 7.87914 21.7497 7.90221 21.7594 7.92527C21.8135 8.05567 21.8783 8.20027 21.9537 8.3564L22.0042 8.45842V8.4664C22.0034 8.4687 22.0034 8.4712 22.0042 8.4735L22.0122 8.49035L22.0202 8.50632C22.025 8.51664 22.0304 8.5267 22.0362 8.53648C22.0415 8.54801 22.0477 8.55954 22.0539 8.57108C22.0947 8.65091 22.1426 8.73341 22.1861 8.8168C22.2189 8.87624 22.2535 8.93567 22.289 8.99422L22.3272 9.0572L22.3848 9.15212L22.4558 9.26478C22.8616 9.89943 23.3479 10.4788 23.9026 10.9884C24.7122 11.7296 25.6542 12.3116 26.6792 12.704H26.6863C26.6979 13.3614 26.7094 14.0205 26.72 14.6778L26.7458 15.7281Z" fill="white"/>
<path opacity="0.17" d="M27.7939 13.0173L27.7717 16.7049C27.0531 16.6962 26.3382 16.6002 25.6427 16.4193C24.5697 16.139 23.5577 15.6629 22.6577 15.015C22.6577 15.392 22.663 15.9545 22.663 16.6384C22.663 17.5486 22.663 18.0657 22.6577 18.6149C22.6417 22.0071 22.726 22.6635 22.4279 24.0048C22.3659 24.3283 22.2811 24.647 22.1742 24.9585C21.6011 26.5552 20.3521 27.8344 19.0791 28.5148C18.7239 28.7037 18.351 28.8573 17.9658 28.9734V6.95757L21.5869 6.93628C21.5843 7.21874 21.6235 7.50003 21.7031 7.77103C21.712 7.80031 21.7209 7.82781 21.7306 7.85974L22.0704 7.85353C22.3209 8.75513 22.7456 9.59895 23.3203 10.3374C23.5014 10.5684 23.697 10.7876 23.9058 10.9938C24.871 11.7727 25.9798 11.9927 26.6753 12.0584C26.6797 12.2766 26.6851 12.4948 26.6895 12.713C27.0499 12.8406 27.419 12.9422 27.7939 13.0173Z" fill="black"/>
</svg>
