<svg width="36" height="36" viewBox="0 0 36 36" fill="none" xmlns="http://www.w3.org/2000/svg">
<g clip-path="url(#clip0_93_5145)">
<path d="M2.24957 2.44945C-0.579434 5.38795 -0.000433534 8.50945 -0.000433534 17.9924C-0.000433534 25.8674 -1.37443 33.7619 5.81657 35.6204C8.06207 36.1979 27.9581 36.1979 30.2006 35.6174C33.1946 34.8449 35.6306 32.4164 35.9636 28.1819C36.0101 27.5909 36.0101 8.40445 35.9621 7.80145C35.6081 3.29095 32.8316 0.691448 29.1731 0.164948C28.3346 0.0434475 28.1666 0.00744752 23.8646 -5.24782e-05C8.60507 0.00744752 5.26007 -0.672053 2.24957 2.44945Z" fill="url(#paint0_linear_93_5145)"/>
<path d="M17.9967 4.70838C12.5502 4.70838 7.37822 4.22388 5.40272 9.29389C4.58672 11.3879 4.70522 14.1074 4.70522 18.0014C4.70522 21.4184 4.59572 24.6299 5.40272 26.7074C7.37372 31.7804 12.5877 31.2944 17.9937 31.2944C23.2092 31.2944 28.5867 31.8374 30.5862 26.7074C31.4037 24.5924 31.2837 21.9134 31.2837 18.0014C31.2837 12.8084 31.5702 9.45588 29.0517 6.93888C26.5017 4.38888 23.0532 4.70838 17.9907 4.70838H17.9967ZM16.8057 7.10389C28.1667 7.08589 29.6127 5.82289 28.8147 23.3684C28.5312 29.5739 23.8062 28.8929 17.9982 28.8929C7.40822 28.8929 7.10372 28.5899 7.10372 17.9954C7.10372 7.27789 7.94372 7.10989 16.8057 7.10089V7.10389ZM25.0917 9.31038C24.2112 9.31038 23.4972 10.0244 23.4972 10.9049C23.4972 11.7854 24.2112 12.4994 25.0917 12.4994C25.9722 12.4994 26.6862 11.7854 26.6862 10.9049C26.6862 10.0244 25.9722 9.31038 25.0917 9.31038ZM17.9967 11.1749C14.2272 11.1749 11.1717 14.2319 11.1717 18.0014C11.1717 21.7709 14.2272 24.8264 17.9967 24.8264C21.7662 24.8264 24.8202 21.7709 24.8202 18.0014C24.8202 14.2319 21.7662 11.1749 17.9967 11.1749ZM17.9967 13.5704C23.8542 13.5704 23.8617 22.4324 17.9967 22.4324C12.1407 22.4324 12.1317 13.5704 17.9967 13.5704Z" fill="white"/>
</g>
<defs>
<linearGradient id="paint0_linear_93_5145" x1="2.3186" y1="33.7006" x2="35.7768" y2="4.74291" gradientUnits="userSpaceOnUse">
<stop stop-color="#FFDD55"/>
<stop offset="0.5" stop-color="#FF543E"/>
<stop offset="1" stop-color="#C837AB"/>
</linearGradient>
<clipPath id="clip0_93_5145">
<rect width="36" height="36" fill="white"/>
</clipPath>
</defs>
</svg>
