<svg width="36" height="36" viewBox="0 0 36 36" fill="none" xmlns="http://www.w3.org/2000/svg">
<g clip-path="url(#clip0_93_5174)">
<path d="M31.0909 0H4.90909C2.19787 0 0 2.19787 0 4.90909V31.0909C0 33.8021 2.19787 36 4.90909 36H31.0909C33.8021 36 36 33.8021 36 31.0909V4.90909C36 2.19787 33.8021 0 31.0909 0Z" fill="#0077B5"/>
<path d="M12.9684 9.81818C12.9684 10.425 12.7885 11.0182 12.4513 11.5228C12.1142 12.0273 11.635 12.4206 11.0744 12.6528C10.5137 12.885 9.89681 12.9458 9.30164 12.8274C8.70647 12.709 8.15978 12.4168 7.73068 11.9877C7.30159 11.5586 7.00937 11.0119 6.89099 10.4168C6.7726 9.82159 6.83336 9.20468 7.06558 8.64404C7.29781 8.0834 7.69106 7.60422 8.19562 7.26708C8.70018 6.92995 9.29339 6.75 9.90021 6.75C10.7139 6.75 11.4944 7.07325 12.0697 7.64865C12.6451 8.22405 12.9684 9.00445 12.9684 9.81818Z" fill="white"/>
<path d="M12.2732 14.9318V28.487C12.2737 28.587 12.2545 28.6862 12.2166 28.7787C12.1787 28.8712 12.1229 28.9554 12.0524 29.0263C11.9818 29.0972 11.898 29.1534 11.8057 29.1918C11.7133 29.2302 11.6143 29.25 11.5143 29.25H8.28044C8.18044 29.2503 8.08138 29.2308 7.98894 29.1926C7.8965 29.1545 7.81251 29.0984 7.7418 29.0277C7.67109 28.957 7.61505 28.873 7.57691 28.7806C7.53876 28.6881 7.51926 28.5891 7.51953 28.4891V14.9318C7.51953 14.73 7.5997 14.5365 7.7424 14.3938C7.8851 14.2511 8.07864 14.1709 8.28044 14.1709H11.5143C11.7158 14.1714 11.9088 14.2518 12.051 14.3945C12.1933 14.5371 12.2732 14.7304 12.2732 14.9318Z" fill="white"/>
<path d="M29.1761 21.9885V28.5503C29.1764 28.6423 29.1585 28.7334 29.1234 28.8184C29.0884 28.9034 29.0368 28.9806 28.9718 29.0456C28.9068 29.1106 28.8296 29.1621 28.7446 29.1972C28.6596 29.2323 28.5685 29.2502 28.4766 29.2499H24.9993C24.9074 29.2502 24.8163 29.2323 24.7313 29.1972C24.6463 29.1621 24.5691 29.1106 24.504 29.0456C24.439 28.9806 24.3875 28.9034 24.3524 28.8184C24.3174 28.7334 24.2995 28.6423 24.2997 28.5503V22.191C24.2997 21.2419 24.5779 18.0347 21.8186 18.0347C19.6811 18.0347 19.2454 20.2294 19.1595 21.2153V28.5503C19.1595 28.7341 19.0872 28.9105 18.9583 29.0414C18.8293 29.1723 18.654 29.2472 18.4702 29.2499H15.1116C15.0198 29.2499 14.9289 29.2318 14.8442 29.1966C14.7594 29.1614 14.6824 29.1099 14.6176 29.0449C14.5528 28.9799 14.5015 28.9028 14.4666 28.8179C14.4316 28.733 14.4138 28.6421 14.4141 28.5503V14.8724C14.4138 14.7806 14.4316 14.6897 14.4666 14.6048C14.5015 14.52 14.5528 14.4428 14.6176 14.3779C14.6824 14.3129 14.7594 14.2613 14.8442 14.2261C14.9289 14.191 15.0198 14.1728 15.1116 14.1728H18.4702C18.6557 14.1728 18.8337 14.2465 18.9649 14.3777C19.096 14.5089 19.1697 14.6869 19.1697 14.8724V16.0547C19.9634 14.8642 21.1395 13.9458 23.6493 13.9458C29.2088 13.9458 29.1761 19.1372 29.1761 21.9885Z" fill="white"/>
</g>
<defs>
<clipPath id="clip0_93_5174">
<rect width="36" height="36" fill="white"/>
</clipPath>
</defs>
</svg>
