<svg width="36" height="36" viewBox="0 0 36 36" fill="none" xmlns="http://www.w3.org/2000/svg">
<g clip-path="url(#clip0_464_1749)">
<rect width="36" height="36" rx="8" fill="#FF0000"/>
<path d="M18 36C27.9411 36 36 27.9411 36 18C36 8.05888 27.9411 0 18 0C8.05888 0 0 8.05888 0 18C0 27.9411 8.05888 36 18 36Z" fill="#FF0000"/>
<path d="M23.8903 11.2287H12.1098C11.639 11.2287 11.1728 11.3215 10.7379 11.5017C10.303 11.6819 9.90787 11.9461 9.57509 12.2791C9.24231 12.6121 8.9784 13.0074 8.79846 13.4424C8.61851 13.8775 8.52606 14.3437 8.52637 14.8145V21.1855C8.52606 21.6563 8.61851 22.1226 8.79846 22.5576C8.9784 22.9926 9.24231 23.3879 9.57509 23.7209C9.90787 24.0539 10.303 24.3181 10.7379 24.4983C11.1728 24.6786 11.639 24.7713 12.1098 24.7713H23.8903C24.3611 24.7713 24.8273 24.6786 25.2622 24.4983C25.6971 24.3181 26.0922 24.0539 26.425 23.7209C26.7578 23.3879 27.0217 22.9926 27.2016 22.5576C27.3816 22.1226 27.474 21.6563 27.4737 21.1855V14.8145C27.474 14.3437 27.3816 13.8775 27.2016 13.4424C27.0217 13.0074 26.7578 12.6121 26.425 12.2791C26.0922 11.9461 25.6971 11.6819 25.2622 11.5017C24.8273 11.3215 24.3611 11.2287 23.8903 11.2287ZM15.5037 20.9037V15.0963L20.4964 18L15.5037 20.9037Z" fill="white"/>
</g>
<defs>
<clipPath id="clip0_464_1749">
<rect width="36" height="36" fill="white"/>
</clipPath>
</defs>
</svg>
